<svg height='300px' width='300px'
  fill="#AB7C94" 
xmlns="http://www.w3.org/2000/svg" xmlns:xlink="http://www.w3.org/1999/xlink" xml:space="preserve" 
style="shape-rendering:geometricPrecision;text-rendering:geometricPrecision;image-rendering:optimizeQuality;" viewBox="0 0 100 100" x="0px" y="0px" 
fill-rule="evenodd" clip-rule="evenodd"><defs>
<style type="text/css">
   
    .fil0 {fill:#f90}
   
  </style></defs><g><path class="fil0" d="M19.5332 41.1428l60.9359 0 0 3.90239 -60.9359 0 0 -3.90239zm30.468 -29.1179l45.0004 26.1156 -10.03 0 -34.9704 -20.2939 -34.9704 20.2939 -10.0312 0 45.0015 -26.1156zm0 9.30598l28.9668 16.8096 -57.9335 0 28.9668 -16.8096zm-24.1644 27.0156l11.1072 0 0 24.9156 -11.1072 0 0 -24.9156zm37.2227 0l11.106 0 0 24.9156 -11.106 0 0 -24.9156zm-18.612 0l11.1072 0 0 24.9156 -11.1072 0 0 -24.9156zm-31.518 35.7215l74.1431 0 0 3.90239 -74.1431 0 0 -3.90239zm6.6036 -7.50478l60.9359 0 0 3.90239 -60.9359 0 0 -3.90239z"></path></g></svg>
